# xmcd
#
# Track frame offsets:
#	150
#	17285
#	37347
#	54950
#	70577
#	88723
#	105997
#	122663
#	138497
#	162119
#	179660
#	198825
#	218021
#	233551
#	248334
#
# Disc length: 3531 seconds
#
# Revision: 1
# Processed by: cddbd v1.5.1PL0 Copyright (c) Steve Scherf et al.
# Submitted via: audiograbber 1.83.01
#
DISCID=b90dc90f
DTITLE=Chris De Burgh - The Road To Freedom
DYEAR=2004
DGENRE=Blues
TTITLE0=When Winter Comes
TTITLE1=The Road To Freedom
TTITLE2=Snow Is Falling
TTITLE3=The Words "I Love You"
TTITLE4=Songbird
TTITLE5=Five Past Dreams
TTITLE6=Here For You
TTITLE7=What You Mean To Me
TTITLE8=Rose Of England
TTITLE9=The Journey
TTITLE10=Read My Name
TTITLE11=Even Now
TTITLE12=Kiss Me From A Distance
TTITLE13=Little Angel
TTITLE14=Once Upon A Time
EXTD=
EXTT0=
EXTT1=
EXTT2=
EXTT3=
EXTT4=
EXTT5=
EXTT6=
EXTT7=
EXTT8=
EXTT9=
EXTT10=
EXTT11=
EXTT12=
EXTT13=
EXTT14=
PLAYORDER=
